# xmcd
#
# Track frame offsets: 
#        150
#        17620
#        38250
#        54682
#        68406
#        84129
#        98874
#        121961
#        139336
#        153691
#        166252
#        183178
#        200018
#        215728
#
# Disc length: 3023 seconds
#
# Revision: 0
# Processed by: cddbd v1.5.2PL0 Copyright (c) Steve Scherf et al.
# Submitted via: ExactAudioCopy v1.0b3
#
DISCID=b60bcd0e
DTITLE=群星 - 聆极物语II
DYEAR=2006
DGENRE=stereo
TTITLE0=外面的世界
TTITLE1=弯弯的月亮
TTITLE2=外婆的澎湖弯
TTITLE3=如果
TTITLE4=再回首
TTITLE5=秋蝉
TTITLE6=别问我是谁
TTITLE7=同一首歌
TTITLE8=送别
TTITLE9=满山红叶似彩霞
TTITLE10=松花江上
TTITLE11=青叶城之恋
TTITLE12=让我们看云去
TTITLE13=祝酒歌
EXTD=
EXTT0=
EXTT1=
EXTT2=
EXTT3=
EXTT4=
EXTT5=
EXTT6=
EXTT7=
EXTT8=
EXTT9=
EXTT10=
EXTT11=
EXTT12=
EXTT13=
PLAYORDER=
